# xmcd
#
# Track frame offsets:
#	150
#	23615
#	36241
#	50013
#	61514
#	75213
#	99584
#	110490
#	123632
#	133103
#	144294
#	159480
#
# Disc length: 2298 seconds
#
# Revision: 0
# Processed by: cddbd v1.5.2PL0 Copyright (c) Steve Scherf et al.
# Submitted via: EasyCDDAExtractor 10.0.6.1
#
DISCID=9408f80c
DTITLE=Samuli Edelmann - Virsiä
DYEAR=2007
DGENRE=Gospel
TTITLE0=Taas kukkasilla kukkulat (virsi 572)
TTITLE1=Mä silmät luon ylös taivaaseen (virsi 490)
TTITLE2=Herra elämääni (virsi 509)
TTITLE3=Ystävä sä lapsien (virsi 492)
TTITLE4=Soi kunniaksi luojan (vrsi 462)
TTITLE5=Oi herra jos mä matkamies maan (virsi 631)
TTITLE6=Tule kanssani herra Jeesus (virsi 548)
TTITLE7=Totuuden henki johda sinä meitä (Virsi 484)
TTITLE8=Kosketa mua henki (virsi 125)
TTITLE9=Jumala loi (virsi 135)
TTITLE10=Käy yrttitarhasta polku (virsi 77)
TTITLE11=ta on tullut luojani (virsi 563)l
EXTD=
EXTT0=
EXTT1=
EXTT2=
EXTT3=
EXTT4=
EXTT5=
EXTT6=
EXTT7=
EXTT8=
EXTT9=
EXTT10=
EXTT11=
PLAYORDER=
